# xmcd CD database file
#
# Track frame offsets:
#	150
#	6530
#	25652
#	43812
#	66610
#	96112
#	133855
#	159252
#	202422
#	220497
#
# Disc length: 3399 seconds
#
# Revision: 0
# Processed by: cddbd v1.5.1PL2 Copyright (c) Steve Scherf et al.
# Submitted via: CDex 1.51
#
DISCID=9b0d450a
DTITLE=BLACK BOTTOM BRASS BAND - Live in New Orleans 2005.Jun
DYEAR=2005
DGENRE=Jazz
TTITLE0=INTRO 〜ニューオリンズでのパレード:MERCY,MERCY,MERCY
TTITLE1=Just enjoy yourself
TTITLE2=ワッショイ★ブギ
TTITLE3=ストロベリー・ダンス・アワー
TTITLE4=IKO IKO
TTITLE5=MARDI GRAS IN NEW ORLEANS
TTITLE6=FOGGY SMILE
TTITLE7=MERCY,MERCY,MERCY
TTITLE8=OUTRO 〜ニューオリンズでのパレード:Hey Pocky A-Way
TTITLE9=Data
EXTD=YEAR: 2005
EXTT0=
EXTT1=
EXTT2=
EXTT3=
EXTT4=
EXTT5=
EXTT6=
EXTT7=
EXTT8=
EXTT9=
PLAYORDER=
